<svg xmlns="http://www.w3.org/2000/svg" width="240" height="240" viewBox="0 0 2400 2400">
 <path fill="#537986" d="M870 1623c-49-19-50-23-50-249v-212l-227-4c-260-3-283-9-338-87-27-38-30-50-33-141l-4-100h-75c-77 0-125-16-137-45-3-9-6-108-6-219 0-199 0-203 23-224 20-19 35-22 109-22h86l4-100c3-91 6-103 33-141 60-84 12-79 783-79 742 0 720-2 774 56 39 42 48 75 48 175v89h89c140 0 135-8 139 243l3 205-25 28c-23 27-29 29-115 32l-91 4v88c0 99-9 132-48 173-56 59-67 62-314 65l-228 4v208c0 275 17 254-212 257-95 1-180-1-188-4z"/>
 <path fill="#7cacc8" d="M362 1147c-55-11-117-70-132-127-7-27-10-181-8-469l3-429 30-43c60-84 12-79 782-79 457 0 691 4 710 11 38 14 83 57 99 96 18 41 21 884 3 930-13 35-55 80-94 101-27 15-99 17-690 17-363 1-679-3-703-8z"/>
 <path fill="#89b4ce" d="M362 1147c-55-11-117-70-132-127-7-27-10-181-8-469l3-429 30-43c60-84 12-79 782-79 457 0 691 4 710 11 38 14 83 57 99 96 18 41 21 884 3 930-13 35-55 80-94 101-27 15-99 17-690 17-363 1-679-3-703-8zm1299-157c18-10 19-26 19-429 0-342-2-421-14-430-9-8-99-11-307-9l-294 3 1 103c1 57-3 102-8 102s-6 9-3 20c4 12 2 20-5 20s-10 7-6 15c3 8 1 15-5 15s-9 7-5 15c3 8 1 15-5 15s-7 5-4 10c3 6 1 10-5 10s-8 5-5 10c3 6 1 10-5 10s-8 5-5 10c3 6 1 10-5 10s-9 4-6 9-1 11-9 15c-8 3-12 12-9 21 4 9 1 15-9 15-8 0-20 7-27 15-10 12-10 15 0 15s10 3 0 15c-7 8-21 15-31 15s-22 6-26 13c-4 6-20 18-35 26s-26 17-24 20-31 17-75 31c-43 14-79 27-79 30s-61 4-135 2l-135-4v121c0 95 3 123 16 135 14 14 84 16 620 16 398 0 612-4 625-10z"/>
 <path fill="#babab7" d="M362 1147c-55-11-117-70-132-127-7-27-10-181-8-469l3-429 30-43c60-84 12-79 782-79 457 0 691 4 710 11 38 14 83 57 99 96 18 41 21 884 3 930-13 35-55 80-94 101-27 15-99 17-690 17-363 1-679-3-703-8zm1299-157c18-10 19-26 19-428 0-312-3-421-12-430s-164-12-634-12c-558 0-622 2-628 16-3 9-6 199-6 424 0 358 2 411 16 424 14 14 84 16 620 16 398 0 612-4 625-10z"/>
 <path fill="#d9d6d4" d="M415 1147c-17-5-41-19-54-31-50-45-51-52-51-543 0-511-1-504 69-550l34-23h626c587 0 628 1 660 18 72 39 71 31 71 561 0 457-1 475-20 506-11 18-37 41-58 51-35 17-77 19-642 20-362 0-617-3-635-9zm1246-157c18-10 19-26 19-428 0-312-3-421-12-430s-164-12-634-12c-558 0-622 2-628 16-3 9-6 199-6 424 0 358 2 411 16 424 14 14 84 16 620 16 398 0 612-4 625-10z"/>
</svg>
