<?xml version="1.0" standalone="no"?>
<!DOCTYPE svg PUBLIC "-//W3C//DTD SVG 20010904//EN"
 "http://www.w3.org/TR/2001/REC-SVG-20010904/DTD/svg10.dtd">
<svg version="1.0" xmlns="http://www.w3.org/2000/svg"
 width="840.000000pt" height="485.000000pt" viewBox="0 0 840.000000 485.000000"
 preserveAspectRatio="xMidYMid meet">

<g transform="translate(0.000000,485.000000) scale(0.100000,-0.100000)"
fill="#000000" stroke="none">
<path d="M4081 4414 c-166 -45 -303 -183 -340 -345 -26 -112 -5 -254 52 -351
51 -88 163 -175 270 -211 15 -6 17 -23 17 -166 l0 -160 -512 -4 c-573 -4 -559
-2 -714 -78 -246 -121 -395 -350 -419 -649 l-6 -75 -74 -22 c-143 -44 -288
-166 -358 -302 -61 -118 -72 -163 -72 -301 0 -96 4 -138 19 -180 73 -214 236
-377 431 -431 l60 -16 8 -64 c20 -158 97 -312 216 -429 112 -109 232 -174 379
-205 99 -22 2225 -22 2324 0 148 31 269 96 378 205 120 118 197 272 217 430
l8 64 50 12 c209 54 389 239 445 460 81 318 -105 657 -415 755 l-74 24 -5 75
c-24 297 -176 532 -421 650 -155 75 -141 73 -712 77 l-513 4 0 160 c0 143 2
160 18 166 69 23 131 60 183 109 101 97 149 207 149 338 -1 132 -40 232 -127
326 -115 125 -298 178 -462 134z m209 -245 c60 -27 88 -54 116 -114 41 -86 28
-178 -34 -247 -48 -53 -102 -78 -172 -78 -128 0 -230 102 -230 229 0 163 173
277 320 210z m1084 -1257 c130 -49 226 -131 285 -241 62 -117 61 -97 61 -876
0 -771 1 -759 -57 -874 -60 -120 -216 -236 -352 -261 -34 -6 -450 -10 -1115
-10 -1169 0 -1128 -2 -1250 62 -120 63 -225 199 -255 328 -7 29 -11 304 -11
755 0 779 -1 759 61 876 71 133 215 236 369 262 14 3 515 4 1115 3 l1090 -1
59 -23z m-2944 -1162 c0 -249 -3 -370 -10 -370 -22 0 -86 39 -132 80 -32 27
-60 67 -85 118 -36 72 -38 81 -38 171 0 87 3 102 32 163 37 78 107 153 173
186 25 12 48 22 53 22 4 0 7 -166 7 -370z m3638 323 c63 -43 103 -91 140 -170
23 -50 27 -71 27 -154 0 -90 -2 -99 -38 -171 -25 -51 -53 -91 -85 -118 -46
-41 -110 -80 -132 -80 -7 0 -10 121 -10 371 l0 370 23 -6 c12 -4 46 -23 75
-42z"/>
<path d="M3259 2410 c-111 -19 -213 -95 -265 -197 -26 -52 -29 -68 -29 -153 0
-83 3 -102 27 -150 78 -160 263 -243 425 -192 115 36 201 121 239 234 22 67
15 185 -14 250 -42 97 -154 187 -248 203 -75 12 -89 13 -135 5z m137 -274 c26
-26 34 -42 34 -71 0 -108 -121 -162 -194 -86 -34 36 -43 88 -22 129 22 43 54
62 104 62 37 0 50 -6 78 -34z"/>
<path d="M5010 2407 c-105 -24 -209 -108 -253 -205 -31 -71 -35 -191 -8 -264
44 -116 130 -193 251 -224 160 -41 332 42 408 196 23 47 27 67 27 145 0 82 -3
97 -33 157 -73 150 -235 230 -392 195z m142 -257 c79 -62 49 -183 -51 -205
-40 -8 -98 19 -116 56 -26 49 -19 97 19 135 29 29 41 34 79 34 29 0 53 -7 69
-20z"/>
<path d="M3792 1292 c-68 -63 -51 -156 35 -201 15 -7 131 -11 368 -11 366 0
388 2 428 48 27 29 33 92 13 130 -33 63 -23 62 -437 62 l-377 0 -30 -28z"/>
</g>
</svg>
